<?xml version="1.0" encoding="utf-8"?>
<!-- Generator: Adobe Illustrator 27.3.1, SVG Export Plug-In . SVG Version: 6.00 Build 0)  -->
<svg version="1.1" id="Livello_1" xmlns="http://www.w3.org/2000/svg" xmlns:xlink="http://www.w3.org/1999/xlink" x="0px" y="0px"
	 viewBox="0 0 570.56 176.61" style="enable-background:new 0 0 570.56 176.61;" xml:space="preserve">
<style type="text/css">
	.st0{fill:#EF7D00;}
	.st1{fill:#009FE3;}
	.st2{fill:none;stroke:#000000;stroke-width:0.25;stroke-miterlimit:10;}
	.st3{fill:#E84E0F;}
	.st4{fill:#F39200;}
</style>
<g>
	<path class="st0" d="M201.24,57.03l25.37,67.84h-15.49l-5.13-15.11h-25.37l-5.32,15.11h-15.01l25.66-67.84H201.24z M202.09,98.64
		l-8.55-24.9h-0.19l-8.84,24.9H202.09z"/>
	<path class="st0" d="M223.75,75.75h15.39l8.65,12.83l8.55-12.83h14.92l-16.15,22.99l18.15,26.13h-15.39l-10.26-15.49l-10.26,15.49
		h-15.11l17.67-25.85L223.75,75.75z"/>
	<path class="st0" d="M289.13,113.09c2.03,1.96,4.94,2.95,8.74,2.95c2.72,0,5.07-0.68,7.03-2.04c1.96-1.36,3.17-2.8,3.61-4.32h11.88
		c-1.9,5.89-4.82,10.1-8.74,12.64c-3.93,2.53-8.68,3.8-14.25,3.8c-3.87,0-7.35-0.62-10.45-1.85c-3.11-1.24-5.73-2.99-7.89-5.27
		c-2.15-2.28-3.82-5-4.99-8.17c-1.17-3.17-1.76-6.65-1.76-10.45c0-3.67,0.6-7.09,1.81-10.26c1.2-3.17,2.91-5.91,5.13-8.22
		c2.22-2.31,4.86-4.13,7.93-5.46c3.07-1.33,6.48-2,10.22-2c4.18,0,7.82,0.81,10.93,2.42c3.1,1.62,5.65,3.79,7.65,6.51
		c2,2.72,3.44,5.83,4.32,9.31c0.88,3.48,1.2,7.13,0.95,10.93H285.8C285.99,107.96,287.1,111.12,289.13,113.09z M304.38,87.24
		c-1.62-1.77-4.07-2.66-7.36-2.66c-2.16,0-3.94,0.37-5.37,1.09c-1.42,0.73-2.57,1.63-3.42,2.71c-0.86,1.08-1.46,2.22-1.8,3.42
		c-0.35,1.2-0.55,2.28-0.62,3.23h21.95C307.12,91.61,305.99,89.02,304.38,87.24z"/>
	<path class="st0" d="M339.39,57.03v67.84H325.9V57.03H339.39z"/>
</g>
<g>
	<path class="st1" d="M346.99,68.95V56.41h55.59v12.54h-20.33v55.3h-14.92v-55.3H346.99z"/>
	<path class="st1" d="M409.13,112.47c2.03,1.96,4.94,2.95,8.74,2.95c2.72,0,5.07-0.68,7.03-2.04c1.96-1.36,3.17-2.8,3.61-4.32h11.88
		c-1.9,5.89-4.82,10.1-8.74,12.64c-3.93,2.53-8.68,3.8-14.25,3.8c-3.87,0-7.35-0.62-10.45-1.85c-3.11-1.24-5.73-2.99-7.89-5.27
		c-2.15-2.28-3.82-5-4.99-8.17c-1.17-3.17-1.76-6.65-1.76-10.45c0-3.67,0.6-7.09,1.81-10.26c1.2-3.17,2.91-5.91,5.13-8.22
		c2.22-2.31,4.86-4.13,7.93-5.46c3.07-1.33,6.48-2,10.22-2c4.18,0,7.82,0.81,10.93,2.42c3.1,1.62,5.65,3.79,7.65,6.51
		c2,2.72,3.44,5.83,4.32,9.31c0.88,3.48,1.2,7.13,0.95,10.93H405.8C406,107.34,407.1,110.51,409.13,112.47z M424.38,86.62
		c-1.62-1.77-4.07-2.66-7.36-2.66c-2.16,0-3.94,0.37-5.37,1.09c-1.42,0.73-2.57,1.63-3.42,2.71c-0.86,1.08-1.46,2.22-1.8,3.42
		c-0.35,1.2-0.55,2.28-0.62,3.23h21.95C427.12,90.99,426,88.4,424.38,86.62z"/>
	<path class="st1" d="M468.99,83.96c-2.16,0-3.96,0.49-5.42,1.47c-1.46,0.98-2.65,2.25-3.56,3.8c-0.92,1.55-1.57,3.26-1.95,5.13
		c-0.38,1.87-0.57,3.72-0.57,5.56c0,1.77,0.19,3.58,0.57,5.41c0.38,1.84,1,3.5,1.85,4.99s2.01,2.71,3.47,3.66
		c1.46,0.95,3.23,1.42,5.32,1.42c3.23,0,5.72-0.9,7.46-2.71c1.74-1.8,2.83-4.23,3.28-7.27h13.02c-0.89,6.52-3.42,11.5-7.6,14.92
		c-4.18,3.42-9.53,5.13-16.06,5.13c-3.67,0-7.05-0.62-10.12-1.85c-3.07-1.24-5.69-2.96-7.84-5.18c-2.15-2.22-3.83-4.86-5.04-7.93
		c-1.2-3.07-1.8-6.44-1.8-10.12c0-3.8,0.55-7.33,1.66-10.6c1.11-3.26,2.74-6.08,4.89-8.46c2.15-2.37,4.78-4.23,7.89-5.56
		c3.1-1.33,6.65-2,10.64-2c2.91,0,5.72,0.38,8.41,1.14c2.69,0.76,5.1,1.92,7.22,3.47c2.12,1.55,3.85,3.49,5.18,5.8
		c1.33,2.31,2.09,5.05,2.28,8.22h-13.21C478.08,86.78,474.75,83.96,468.99,83.96z"/>
	<path class="st1" d="M509.85,56.41v25.56h0.28c1.71-2.85,3.9-4.92,6.56-6.22c2.66-1.3,5.26-1.95,7.79-1.95
		c3.61,0,6.57,0.49,8.89,1.47c2.31,0.98,4.13,2.34,5.46,4.08c1.33,1.74,2.27,3.87,2.8,6.37c0.54,2.5,0.81,5.27,0.81,8.32v30.22
		h-13.49V96.51c0-4.05-0.63-7.08-1.9-9.07c-1.27-2-3.52-2.99-6.75-2.99c-3.67,0-6.33,1.09-7.98,3.28
		c-1.65,2.19-2.47,5.78-2.47,10.78v25.75h-13.49V56.41H509.85z"/>
</g>
<path class="st0" d="M120.88,134.49c-15.85,11.48-37.35,14.18-56.22,5.17c-27.46-13.11-39.13-46.12-26.01-73.57
	c13.11-27.46,46.12-39.13,73.57-26.01c16.44,7.85,27.25,23,30.44,39.65c7.17,0.07,7.24,0.2,13.08,0.2
	c-3.36-21.42-16.99-41.38-37.99-51.41c-33.83-16.16-74.5-1.78-90.65,32.05s-1.78,74.5,32.05,90.65c24.09,11.51,51.58,7.56,71.29-7.9
	C125.88,139.22,125.21,138.47,120.88,134.49z"/>
<path class="st2" d="M129.66,79.92"/>
<path class="st2" d="M77.36,82.45"/>
<polygon class="st3" points="89.34,79.42 82.81,98.08 148.64,98.08 155.66,79.42 "/>
<path class="st4" d="M82.81,98.08l6.53-18.66l48.84,43.19l-7.74,20.69C124.53,138.28,82.81,98.08,82.81,98.08z"/>
</svg>
